<svg xmlns="http://www.w3.org/2000/svg" version="1.1" xmlns:xlink="http://www.w3.org/1999/xlink" xmlns:svgjs="http://svgjs.com/svgjs" width="512" height="512" x="0" y="0" viewBox="0 0 96 96" style="enable-background:new 0 0 512 512" xml:space="preserve" class="hovered-paths"><g><path xmlns="http://www.w3.org/2000/svg" d="m48 8c-22.091 0-40 17.909-40 40s17.909 40 40 40 40-17.909 40-40c-.025-22.081-17.919-39.975-40-40zm2.577 25.107c.266-1.675 1.013-3.236 2.152-4.492 1.406-1.805 4.009-2.127 5.814-.721.654.51 1.14 1.204 1.395 1.992.641 1.57.81 3.293.486 4.957-.627 3.558-2.963 6.084-5.483 6.084-.22 0-.44-.02-.656-.059-2.763-.487-4.392-3.897-3.708-7.761zm-14.515-3.22c.704-2.177 3.04-3.371 5.216-2.667.789.255 1.483.741 1.992 1.395 1.139 1.256 1.887 2.817 2.152 4.492.684 3.863-.945 7.273-3.709 7.762-.217.039-.436.059-.656.059-2.52 0-4.856-2.525-5.483-6.084-.323-1.665-.154-3.388.488-4.957zm-5.384 20.667c-.416.152-.856.229-1.299.229-1.052-.03-2.067-.397-2.895-1.047-1.339-1.039-2.346-2.446-2.898-4.049-1.342-3.69-.33-7.33 2.305-8.289 2.643-.955 5.75 1.184 7.092 4.869 1.341 3.688.33 7.329-2.305 8.287zm17.322 18.421c-9.393 0-15-3.365-15-9 0-6.012 6.553-13 15-13s15 6.988 15 13c0 5.634-5.607 9-15 9zm24.414-23.288c-.552 1.602-1.56 3.009-2.898 4.049-.828.65-1.842 1.017-2.895 1.047-.443 0-.883-.077-1.299-.229-2.635-.959-3.647-4.6-2.305-8.287 1.338-3.688 4.439-5.83 7.092-4.869 2.635.959 3.647 4.6 2.305 8.289z" fill="#ff0505" data-original="#000000" class="hovered-path"></path></g></svg>