<svg xmlns="http://www.w3.org/2000/svg" version="1.1" xmlns:xlink="http://www.w3.org/1999/xlink" xmlns:svgjs="http://svgjs.com/svgjs" width="512" height="512" x="0" y="0" viewBox="0 0 512 512" style="enable-background:new 0 0 512 512" xml:space="preserve" class=""><g><linearGradient xmlns="http://www.w3.org/2000/svg" id="SVGID_1_" gradientUnits="userSpaceOnUse" x1="256" x2="256" y1="512" y2="32"><stop offset="0" stop-color="#c3ffe8"></stop><stop offset=".9973" stop-color="#f0fff4"></stop></linearGradient><linearGradient xmlns="http://www.w3.org/2000/svg" id="SVGID_2_" gradientUnits="userSpaceOnUse" x1="256" x2="256" y1="452" y2="0"><stop offset="0" stop-color="#00b59c"></stop><stop offset="1" stop-color="#9cffac"></stop></linearGradient><g xmlns="http://www.w3.org/2000/svg"><g><g><path d="m256 272c57.891 0 105-53.833 105-120s-47.109-120-105-120-105 53.833-105 120 47.109 120 105 120zm40.605 93.208c-5.947-.938-11.719 1.553-15 6.46l-25.605 38.335-25.605-38.335c-3.281-4.907-8.994-7.397-15-6.46-57.334 9.741-94.395 37.925-94.395 71.792 0 42.056 59.297 75 135 75s135-32.944 135-75c0-33.867-37.061-62.051-94.395-71.792z" fill="url(#SVGID_1_)" data-original="url(#SVGID_1_)"></path></g></g><g><g><path d="m256 0c-90.901 0-165 76.099-165 167 0 32.699 9.6 64.499 27.599 91.5l124.801 186.899c2.999 4.2 7.5 6.601 12.599 6.601s9.6-2.401 12.599-6.601l124.803-186.899c17.999-27.001 27.599-58.801 27.599-91.5 0-90.901-74.099-167-165-167zm47.1 115.699c4.2-7.2 13.2-9.899 20.4-5.7 7.2 4.2 9.6 13.5 5.4 20.7s-13.2 9.6-20.4 5.4-9.6-13.2-5.4-20.4zm-47.1-23.699c8.401 0 15 6.599 15 15s-6.599 15-15 15-15-6.599-15-15 6.599-15 15-15zm-67.5 17.999c7.2-4.199 16.199-1.5 20.4 5.7s1.8 16.199-5.4 20.4-16.199 1.8-20.4-5.4-1.8-16.499 5.4-20.7zm67.5 132.001c-42.599 0-75-19.501-75-45 0-25.501 32.401-45 75-45s75 19.499 75 45c0 25.499-32.401 45-75 45z" fill="url(#SVGID_2_)" data-original="url(#SVGID_2_)"></path></g></g></g></g></svg>